<svg xmlns="http://www.w3.org/2000/svg" viewBox="0 0 200 240">
<rect width="200" height="240" fill="#0e0b08"/>

<circle cx="28" cy="35" r="1.5" fill="#d4a054" opacity="0.7"/>
<circle cx="72" cy="18" r="1" fill="#d4a054" opacity="0.5"/>
<circle cx="115" cy="42" r="1.3" fill="#d4a054" opacity="0.6"/>
<circle cx="155" cy="15" r="0.9" fill="#d4a054" opacity="0.4"/>
<circle cx="180" cy="55" r="1.1" fill="#d4a054" opacity="0.5"/>
<circle cx="45" cy="75" r="0.8" fill="#d4a054" opacity="0.35"/>
<circle cx="95" cy="65" r="1.4" fill="#d4a054" opacity="0.55"/>
<circle cx="140" cy="85" r="0.7" fill="#d4a054" opacity="0.3"/>
<circle cx="20" cy="105" r="1" fill="#d4a054" opacity="0.4"/>
<circle cx="170" cy="100" r="1.2" fill="#d4a054" opacity="0.45"/>
<circle cx="60" cy="120" r="0.6" fill="#d4a054" opacity="0.25"/>
<circle cx="130" cy="115" r="0.9" fill="#d4a054" opacity="0.35"/>
<circle cx="85" cy="140" r="1.1" fill="#d4a054" opacity="0.4"/>
<circle cx="35" cy="150" r="0.7" fill="#d4a054" opacity="0.28"/>
<circle cx="160" cy="140" r="0.8" fill="#d4a054" opacity="0.3"/>

<ellipse cx="180" cy="30" rx="50" ry="40" fill="#d4a054" opacity="0.012"/>
<ellipse cx="190" cy="20" rx="30" ry="25" fill="#d4a054" opacity="0.008"/>

<rect x="195" y="175" width="5" height="12" fill="none" stroke="#d4a054" stroke-width="1" opacity="0.15"/>
<line x1="0" y1="198" x2="200" y2="198" stroke="#d4a054" stroke-width="0.8" opacity="0.12"/>

<text x="100" y="218" font-family="Georgia, 'Times New Roman', serif" font-size="7.5" fill="#d4a054" text-anchor="middle" opacity="0.7" font-style="italic">"The light is going — the world's glow</text>
<text x="100" y="229" font-family="Georgia, 'Times New Roman', serif" font-size="7.5" fill="#d4a054" text-anchor="middle" opacity="0.7" font-style="italic">lives off to the northeast"</text>

</svg>
